<?xml version="1.0" encoding="utf-8"?>
<!-- Generator: Adobe Illustrator 21.0.2, SVG Export Plug-In . SVG Version: 6.00 Build 0)  -->
<svg version="1.1" id="Layer_1" xmlns="http://www.w3.org/2000/svg" xmlns:xlink="http://www.w3.org/1999/xlink" x="0px" y="0px"
	 viewBox="0 0 607 527" style="enable-background:new 0 0 607 527;" xml:space="preserve">
<style type="text/css">
	.st0{fill:none;}
	.st1{fill:#FFFFFF;}
	.st2{fill:none;stroke:#FFFFFF;stroke-width:5;stroke-miterlimit:10;}
</style>
<g>
	<path class="st0" d="M242.7,263.5c-5.5,0-10,4.3-10,9.7c0,5.4,4.4,9.9,9.8,10c5.4,0.1,9.9-4.4,10-9.8
		C252.5,267.8,248.2,263.5,242.7,263.5z"/>
	<path class="st0" d="M249.8,284.6c-1,0.1-1.5,0.8-1.3,1.8c0.1,0.9,0.8,1.3,1.6,1.2c1-0.1,1.5-0.7,1.6-1.6
		C251.4,285,250.8,284.4,249.8,284.6z"/>
	<path class="st0" d="M239.1,293.6c1,5.8,2,11.4,3,17c0.2,0,0.4,0.1,0.6,0.1c1-5.5,2-11,3.1-16.9c-1.5,1.1-1.5,2.4-1.9,3.5
		c-0.2,0.6-0.3,1.4-1,1.5c-1,0.1-1.1-0.9-1.4-1.5C240.9,296,241,294.4,239.1,293.6z"/>
	<path class="st0" d="M243.2,230.5c1,5.6,2,11.1,3,16.6c0.1,0.4,0.3,1.2,0.4,1.2c3.2-0.1,1.9,2.5,2.3,3.9c0.8,2.5,2.8,3.5,5,2.3
		c5.4-2.9,10.4-6.4,15.4-9.9c1.6-1.2,3.2-2.2,4.4-3.9c20.5-29.5,41-58.9,61.6-88.3c1.3-1.8,1.3-2.7-0.6-4.1
		c-20.6-14.9-43.3-24.5-68.5-28.5c-2.8-0.4-3.5,0.2-3.9,2.8c-5.1,29.3-10.4,58.5-15.6,87.8C245.6,217.1,244.4,223.8,243.2,230.5z"/>
	<path class="st0" d="M283.3,235c5.2-4,10.5-7.8,16.1-11.2c-0.3,0.4-0.7,0.8-1,1.1c0.3-0.3,0.7-0.7,1-1.1c7.5-5.3,15.1-10.7,22.6-16
		c13.6-9.5,27.3-19,40.9-28.6c0.8-0.6,2.8-0.8,1.2-2.8c-7.7-9.4-16.2-18-25.9-25.5c-20.2,29-40.3,57.8-60.6,86.9
		C280.2,237.8,281.4,235.6,283.3,235z"/>
	<path class="st0" d="M241,258.2c0,1.1,0.5,2,1.7,1.9c1-0.1,1.4-0.9,1.6-1.8c-0.2-0.9-0.7-1.7-1.7-1.7
		C241.6,256.6,241,257.2,241,258.2z"/>
	<path class="st0" d="M251.7,260.5c-0.1-0.9-0.6-1.6-1.6-1.6c-1,0-1.6,0.5-1.7,1.5c0,1,0.6,1.6,1.5,1.7
		C250.9,262.2,251.4,261.5,251.7,260.5z"/>
	<path class="st0" d="M233.7,285.9c-0.1,1,0.5,1.7,1.5,1.7c0.9,0,1.4-0.5,1.5-1.4c0-1-0.5-1.6-1.6-1.6
		C234.3,284.5,233.7,285.1,233.7,285.9z"/>
	<path class="st0" d="M236.7,260.3c-0.1-1-0.8-1.5-1.8-1.4c-0.9,0.1-1.3,0.8-1.3,1.6c0,1,0.6,1.5,1.6,1.6
		C236.2,261.9,236.8,261.3,236.7,260.3z"/>
	<path class="st0" d="M244.2,288.1c0-1.1-0.5-1.9-1.7-1.9c-1,0-1.5,0.7-1.5,1.7c0,1,0.4,1.6,1.5,1.7
		C243.5,289.6,244.2,289.1,244.2,288.1z"/>
	<path class="st0" d="M245.1,250.7c-0.7-4.7-1.6-9.3-2.4-14c-0.2,0-0.4,0-0.7,0.1c-0.8,4.4-1.5,8.7-2.3,13.1c-0.3,1.9,0.7,3,2.5,3.1
		C243.8,253,245.4,252.7,245.1,250.7z"/>
	<path class="st0" d="M266.9,271.9c-1.1,0.3-2.2,1-3.2,1.7c-0.9,0.6-1.1,1.7-0.7,2.7c0.5,1,1.4,0.2,2,0.1c4.6-0.7,9.1-1.5,13.6-2.3
		C274.9,272.4,271.1,270.8,266.9,271.9z"/>
	<path class="st0" d="M288.8,231.8c0,0,0.1-0.1,0.1-0.1c0.6-0.4,1.1-0.8,1.7-1.2c-0.6,0.4-1.2,0.8-1.7,1.2
		C288.9,231.7,288.9,231.8,288.8,231.8z"/>
	<path class="st0" d="M255.4,264.2c-1,0.1-1.6,0.7-1.6,1.7c0,1,0.7,1.6,1.6,1.6c1,0,1.6-0.7,1.6-1.6
		C257,264.9,256.3,264.4,255.4,264.2z"/>
	<path class="st0" d="M341.3,196.3c-13.6,9.5-27.3,18.9-41,28.4c-5.2,4-10.5,7.8-16.1,11.2c0.2-0.3,0.3-0.6,0.5-0.8
		c-0.2,0.3-0.4,0.5-0.5,0.8c-10,5.6-16.2,14.5-21.9,24.1c0.8,0.5,2.2-0.6,2.5,0.7c0.2,1-0.8,1.5-1.4,2.1c-2.9,3.4-2.2,5.3,2.1,6.1
		c3,0.6,6,1.4,9.1,1.7c4.1,0.5,8.1,2.3,12.3,1.6c7.4-1.2,14.7-2.6,22.1-3.9c26.5-4.7,53.1-9.5,79.6-14.1c8-1.4,8.1-1.3,6.6-9.2
		c-4.3-23.2-13.4-44.3-27.2-63.4c-1.6-2.2-2.5-2.8-5-0.9C356,186.2,348.6,191.2,341.3,196.3z"/>
	<path class="st0" d="M254.2,289.9c4.7,3.3,9.2,6.5,14.1,9.9C264.4,291.6,259.4,288.1,254.2,289.9z"/>
	<path class="st0" d="M255.7,273.2c0,1,0.6,1.5,1.6,1.7c1,0,1.7-0.6,1.7-1.6c0-1-0.7-1.6-1.6-1.7
		C256.5,271.6,255.8,272.2,255.7,273.2z"/>
	<path class="st0" d="M268.5,248c-0.2-0.2-0.4-0.4-0.5-0.6c-3.2,2.2-6.4,4.4-9.6,6.7c-1.5,1.1-1.7,2.7-1.4,4.5c0.2,1.1,1,1.7,2,2
		c1,0.3,1.2-0.7,1.6-1.3C263.3,255.6,265.9,251.8,268.5,248z"/>
	<path class="st0" d="M255.3,282.2c1,0,1.7-0.5,1.7-1.6c0-1.1-0.8-1.5-1.7-1.7c-0.9,0.3-1.7,0.7-1.6,1.8
		C253.8,281.7,254.4,282.2,255.3,282.2z"/>
	<path class="st0" d="M288.7,231.9L288.7,231.9c0.1-0.1,0.3-0.2,0.4-0.2C289,231.7,288.9,231.8,288.7,231.9z"/>
	<path class="st0" d="M245,335.8c-0.8-4.3-1.6-8.5-2.4-12.8c-0.2,0-0.4,0-0.6,0.1c-1.5,8.5-3,17-4.5,25.6
		c-4.5,25.4-9,50.7-13.7,76.1c-0.5,2.7,0.3,3.3,2.7,3.5c10.6,1,21.1,0.9,31.7,0c2.8-0.2,3-1.4,2.6-3.7
		C255.6,395,250.3,365.4,245,335.8z"/>
	<path class="st0" d="M241.3,316.2c-0.4-7.2-2.3-14.3-3.5-21.5c-0.3-1.5-0.8-1.9-2.2-0.9c-1.1,0.9-1.7,3.4-3.3,2.6
		c-1.3-0.7-0.1-2.8-0.3-4.3c0-0.2-0.1-0.4-0.3-0.9c-5.8,4-11.5,8.1-17.3,12c-1.3,0.9-2.3,2-3.2,3.3c-20.4,29.3-40.8,58.5-61.3,87.7
		c-1.4,2-1.5,3,0.6,4.6c20.5,14.9,43.2,24.3,68.2,28.4c3.2,0.5,3.6-0.7,4-3.1c5.4-30.8,10.9-61.5,16.4-92.3
		C239.9,326.6,241.6,321.4,241.3,316.2z"/>
	<path class="st0" d="M204.5,310.2c-10.3,7.2-20.6,14.4-30.9,21.6c-17.2,12-34.3,23.9-51.5,36c-0.8,0.6-2.9,0.7-1.3,2.7
		c7.7,9.4,16.2,18,26,25.6c20.3-29.1,40.6-58.1,61-87.5C206.1,308.7,205.4,309.6,204.5,310.2z"/>
	<path class="st0" d="M209.2,305c0.9-0.6,1.9-1.2,2.5-2.1c4.2-5.9,8.3-11.9,12.5-17.9c1.3-1.8,0.3-2.6-1.3-3c-0.8-0.2-1.8,0-2.6,0
		c-0.8,0-1.7,0.2-2-0.7c-0.3-0.9,0.6-1.3,1.2-1.7c0.4-0.3,0.8-0.6,1.7-1.4c-5.9-1.1-11.3-1.9-16.7-3c-3.5-0.7-6.9-0.7-10.4,0
		c-6.8,1.4-13.6,2.5-20.5,3.7c-27.6,4.9-55.3,9.8-82.9,14.7c-1.8,0.3-2.4,0.9-2.1,3c3.8,25.3,13.3,48.2,28.3,68.9
		c1.7,2.3,2.7,2.2,4.8,0.7C150.9,345.7,180,325.3,209.2,305z"/>
	<path class="st0" d="M273.5,306.6c-0.5-0.7-1-1.5-1.7-2c-6.1-4.3-12.2-8.6-18.4-12.9c-0.5,1.1,0,1.9,0.1,2.8
		c0.1,0.7,0.5,1.7-0.3,2.1c-1,0.6-1.5-0.5-2.1-1.1c-0.4-0.4-0.7-0.8-1.1-1.2c-0.5-0.6-1.2-1.1-2-1c-1,0.2-0.8,1.2-0.9,1.9
		c-1.1,6.2-2.2,12.3-3.3,18.5c-0.3,1.6-0.6,3.1-0.3,4.9c6.4,35.4,12.6,70.9,18.9,106.3c0.3,2,0.8,2.7,3.1,2.3
		c25.4-3.7,48.4-13.4,69.2-28.4c2-1.5,1.7-2.4,0.4-4.1C314.5,365.4,294.1,335.9,273.5,306.6z"/>
	<path class="st0" d="M393.5,293.4c-31.9-5.6-63.8-10.9-95.6-17.2c-11.6-2.3-22.4-0.2-33.8,2.1c0.5,0.4,0.8,0.6,1,0.8
		c0.7,0.6,2.2,0.8,1.7,2.1c-0.4,1.1-1.7,0.6-2.7,0.7c-0.2,0-0.4,0-0.7,0c-1.3,0-2.5,0.1-3.1,1.4c-0.6,1.3,0.5,2.1,1,2.9
		c3.2,4.7,6.5,9.4,9.8,14.1c1.2,1.7,2.3,3.4,4.1,4.6c29.4,20.5,58.8,41,88.2,61.6c1.8,1.2,2.7,1.3,4.1-0.6
		c15-20.7,24.6-43.5,28.6-68.8C396.7,294.2,395.7,293.8,393.5,293.4z"/>
	<path class="st0" d="M362.2,367.5c-27.3-19-54.5-38-81.7-57c-0.8-0.5-1.4-1.5-2.9-1.1c0.7,0.9,1.3,1.7,1.8,2.5
		c19.1,27.3,38.2,54.6,57.2,82c1.2,1.7,1.9,2,3.6,0.6c8.3-6.8,15.8-14.4,22.7-22.6C364.7,369.8,364.3,368.9,362.2,367.5z"/>
	<path class="st0" d="M394.9,254.8c-4,0.8-8,1.4-12,2.2c-30.3,5.4-60.6,10.8-90.9,16.2c0,0.2,0,0.4,0.1,0.6c0.5,0.1,1,0.3,1.5,0.4
		c22.1,3.9,44.2,7.9,66.3,11.8c11.4,2,22.7,4.1,34.1,6c1.2,0.2,2.8,1.2,3.1-1.4c1.2-11.4,1.3-22.9-0.1-34.3
		C396.8,254.8,396.4,254.5,394.9,254.8z"/>
	<path class="st0" d="M92,291.9c26.7-4.9,53.5-9.6,80.2-14.4c6.9-1.2,13.8-2.5,20.6-3.7c0-0.2,0-0.5,0-0.7c-1-0.1-2-0.3-2.9-0.4
		c-32.9-5.9-65.8-11.7-98.8-17.7c-2.7-0.5-3.3,0.3-3.6,2.7c-0.9,10.3-0.9,20.7-0.1,31C87.9,292.1,89.1,292.4,92,291.9z"/>
	<path class="st0" d="M242.1,224.5c0.5-0.8,0.7-1,0.8-1.3c6-33.8,12-67.7,18.1-101.5c0.4-2.3-0.5-2.8-2.4-3c-10.8-1-21.6-1-32.4,0
		c-2.2,0.2-2.8,0.8-2.4,3.2C230,156,236,190,242.1,224.5z"/>
	<path class="st0" d="M226.6,254.5c-3.2-2.3-6.4-4.5-9.6-6.7c-0.1,0.1-0.3,0.3-0.4,0.4c2.6,3.7,5.1,7.4,7.7,11
		c0.5,0.7,0.7,1.8,1.9,1.5c1-0.3,1.7-1,2.1-2C228.8,256.9,228,255.5,226.6,254.5z"/>
	<path class="st0" d="M226.2,273.5c0.1,0.8,0.6,1.4,1.6,1.4c1.1,0,1.6-0.6,1.6-1.7c-0.1-1-0.7-1.7-1.7-1.6
		C226.7,271.8,226.1,272.5,226.2,273.5z"/>
	<path class="st0" d="M208,236.2c6.1,8.9,15,13.4,23.7,18.5c1.5,0.9,3.1,0.2,4-1.3c1.2-2,1.6-4.4,2.5-6.5c2.1-5.1,2.4-10.9,3.4-16.5
		c-0.1-0.6-0.3-1.2-0.4-1.9c-3.2-18.2-6.4-36.4-9.7-54.6c-3-16.7-6-33.4-8.9-50.1c-0.8-4.6-0.7-4.7-5.4-3.9
		c-24.5,4.2-46.8,13.4-66.9,28.1c-2.2,1.6-2.1,2.5-0.7,4.5C169.2,180.4,188.8,208.2,208,236.2z"/>
	<path class="st0" d="M214.6,271.5c-3,0.7-6,1.1-9,1.6c0,0.2,0,0.5,0.1,0.7c4.7,0.8,9.4,1.7,14.1,2.4c0.8,0.1,2,1.1,2.5-0.3
		c0.3-1-0.2-2.3-1.2-2.8C219.1,272.2,217.1,270.9,214.6,271.5z"/>
	<path class="st0" d="M222.7,290c-2.1,3-4.2,6-6.3,9c0.2,0.2,0.4,0.4,0.6,0.5c4.6-3.2,9.1-6.4,13.7-9.6
		C227.8,287.4,225.3,292.3,222.7,290z"/>
	<path class="st0" d="M91.8,253.6c32,5.7,64,11.4,95.9,17.1c4,0.7,8.1,2.1,12,1.8c7.1-0.6,14.1-2.3,21.1-3.6
		c2.4-0.5,3.2-2.7,1.8-4.8c-0.4-0.6-1-1.1-1.6-1.7c-1.9-1.9-0.5-2.2,1.5-2.4c-3.2-4.5-6.2-8.7-9.1-13c-1.5-2.2-3.3-4-5.5-5.5
		c-28.9-20.1-57.8-40.2-86.6-60.5c-2-1.4-3-1.5-4.5,0.7c-14.7,20.5-24.2,43-28.2,68C88.2,252.9,89.5,253.2,91.8,253.6z"/>
	<path class="st0" d="M122,179.4c17.3,11.9,34.5,24,51.7,36c11.1,7.7,22.1,15.5,33.2,23.2c0.1-0.1,0.3-0.3,0.4-0.4
		c-19.8-28.3-39.5-56.6-59.2-85c-1.4-2.1-2.2-1.5-3.7-0.3c-8.4,6.9-15.9,14.6-22.9,22.9C120.1,177.4,120.1,178.1,122,179.4z"/>
	<path class="st0" d="M231.4,280.6c0-0.9-0.6-1.5-1.4-1.5c-1-0.1-1.7,0.6-1.8,1.6c-0.1,1,0.6,1.6,1.8,1.6
		C230.9,282.2,231.4,281.6,231.4,280.6z"/>
	<path class="st0" d="M229.8,264.3c-1.1-0.1-1.6,0.7-1.7,1.6c0,0.9,0.6,1.7,1.6,1.7c1,0,1.5-0.6,1.7-1.7
		C231.3,265,230.8,264.3,229.8,264.3z"/>
	<path class="st1" d="M411.2,250.5c-2.8-22.2-10.2-42.8-21.2-62.2c-11.2-19.6-26-36.1-43.9-49.8c-22-17-46.7-27.7-74-32.7
		c-5.9-1.1-11.8-0.9-17.7-1.7c-8.4,0-16.8,0-25.2,0c-3.1,0.6-6.3,0.4-9.5,0.8c-19.3,2.5-37.6,8.3-55,17.1
		c-20.7,10.5-38.2,24.9-53.1,42.6c-19.4,23.1-31.6,49.7-37,79.5c-1,5.2-0.8,10.5-1.7,15.7c0,8.8,0,17.7,0,26.5
		c0.7,7.6,1.3,15.3,2.9,22.8c7.9,36.8,26.1,67.8,54.3,92.6c24.4,21.5,52.9,34.9,85,40.2c4.4,0.7,9,0.4,13.4,1.3c6.6,0,13.2,0,19.9,0
		c2.1-0.8,4.2-0.1,6.3-0.3c3.5,0.2,7.1,0,10.5-0.5c22-2.8,42.7-9.8,61.9-20.9c27.1-15.6,48.3-37.1,63.6-64.3
		c9.1-16,15.4-33.1,18.9-51.3c1.2-6.3,1.3-12.6,2.2-18.9c0-8.4,0-16.8,0-25.2C411.4,257.9,411.6,254.2,411.2,250.5z M368.2,181.8
		c13.8,19.1,22.9,40.2,27.2,63.4c1.5,7.9,1.4,7.8-6.6,9.2c-26.6,4.6-53.1,9.4-79.6,14.1c-7.4,1.3-14.7,2.7-22.1,3.9
		c-4.2,0.7-8.2-1.2-12.3-1.6c-3.1-0.4-6.1-1.1-9.1-1.7c-4.4-0.9-5-2.8-2.1-6.1c0.6-0.6,1.6-1.1,1.4-2.1c-0.3-1.3-1.7-0.2-2.5-0.7
		c5.7-9.6,11.9-18.6,21.9-24.1c0.2-0.3,0.3-0.6,0.5-0.8c-0.2,0.3-0.4,0.5-0.5,0.8c5.6-3.5,10.9-7.2,16.1-11.2
		c13.7-9.5,27.3-18.9,41-28.4c7.3-5.1,14.7-10.1,21.9-15.4C365.6,179,366.6,179.6,368.2,181.8z M278.7,274
		c-4.5,0.8-9.1,1.6-13.6,2.3c-0.7,0.1-1.6,0.9-2-0.1c-0.4-0.9-0.2-2.1,0.7-2.7c1-0.7,2-1.4,3.2-1.7
		C271.1,270.8,274.9,272.4,278.7,274z M255.4,267.5c-1,0-1.6-0.7-1.6-1.6c0-1,0.6-1.5,1.6-1.7c1,0.1,1.6,0.7,1.6,1.7
		C257,266.9,256.4,267.5,255.4,267.5z M257.4,271.6c0.9,0,1.6,0.7,1.6,1.7c0,1-0.7,1.5-1.7,1.6c-1-0.1-1.6-0.7-1.6-1.7
		C255.8,272.2,256.5,271.6,257.4,271.6z M255.3,279c0.9,0.2,1.7,0.6,1.7,1.7c0,1-0.7,1.6-1.7,1.6c-0.9,0-1.5-0.5-1.5-1.4
		C253.7,279.7,254.4,279.3,255.3,279z M268.3,299.9c-4.9-3.5-9.4-6.6-14.1-9.9C259.4,288.1,264.4,291.6,268.3,299.9z M259,260.6
		c-1-0.3-1.8-0.9-2-2c-0.3-1.7-0.1-3.4,1.4-4.5c3.2-2.3,6.4-4.5,9.6-6.7c0.2,0.2,0.4,0.4,0.5,0.6c-2.6,3.8-5.2,7.5-7.9,11.3
		C260.2,259.9,260,260.9,259,260.6z M288.7,231.9c0.1-0.1,0.3-0.2,0.4-0.2C289,231.7,288.9,231.8,288.7,231.9L288.7,231.9z
		 M289,231.7c0,0-0.1,0.1-0.1,0.1C288.9,231.8,288.9,231.7,289,231.7c0.6-0.4,1.1-0.8,1.7-1.2C290.1,230.9,289.5,231.3,289,231.7z
		 M364.1,176.5c1.6,1.9-0.3,2.2-1.2,2.8c-13.6,9.6-27.3,19-40.9,28.6c-7.6,5.3-15.1,10.6-22.6,16c-0.3,0.4-0.7,0.8-1,1.1
		c0.3-0.3,0.7-0.7,1-1.1c-5.5,3.5-10.9,7.2-16.1,11.2c-1.9,0.6-3.1,2.8-5.8,2.8c20.3-29.1,40.4-57.9,60.6-86.9
		C347.9,158.5,356.4,167.1,364.1,176.5z M266.2,119.8c25.1,4,47.9,13.6,68.5,28.5c1.9,1.4,1.9,2.2,0.6,4.1
		c-20.6,29.4-41.1,58.8-61.6,88.3c-1.2,1.7-2.8,2.8-4.4,3.9c-5,3.6-10,7-15.4,9.9c-2.2,1.2-4.2,0.2-5-2.3c-0.4-1.4,0.9-4.1-2.3-3.9
		c-0.1,0-0.3-0.8-0.4-1.2c-1-5.5-2-11-3-16.6c1.2-6.7,2.4-13.4,3.6-20.1c5.2-29.3,10.4-58.5,15.6-87.8
		C262.8,120,263.5,119.3,266.2,119.8z M242.5,283.2c-5.4-0.1-9.9-4.6-9.8-10c0-5.4,4.5-9.7,10-9.7c5.5,0,9.8,4.4,9.7,9.9
		C252.4,278.8,247.9,283.3,242.5,283.2z M251.6,286c-0.1,1-0.6,1.6-1.6,1.6c-0.8,0.1-1.5-0.4-1.6-1.2c-0.2-1,0.3-1.7,1.3-1.8
		C250.8,284.4,251.4,285,251.6,286z M241.4,297.3c0.3,0.7,0.4,1.7,1.4,1.5c0.7-0.1,0.8-0.9,1-1.5c0.4-1.1,0.4-2.4,1.9-3.5
		c-1.1,5.9-2.1,11.4-3.1,16.9c-0.2,0-0.4-0.1-0.6-0.1c-1-5.6-2-11.2-3-17C241,294.4,240.9,296,241.4,297.3z M241,287.9
		c0-1,0.5-1.7,1.5-1.7c1.2,0,1.7,0.8,1.7,1.9c0,1-0.7,1.5-1.7,1.5C241.4,289.5,241,288.9,241,287.9z M236.7,286.2
		c-0.1,0.9-0.6,1.4-1.5,1.4c-1.1,0-1.6-0.6-1.5-1.7c0-0.9,0.6-1.4,1.5-1.4C236.2,284.6,236.7,285.2,236.7,286.2z M233.7,260.5
		c0-0.8,0.4-1.5,1.3-1.6c1-0.1,1.7,0.4,1.8,1.4c0.1,1-0.5,1.6-1.4,1.8C234.3,262,233.7,261.5,233.7,260.5z M242.3,252.9
		c-1.8-0.1-2.8-1.2-2.5-3.1c0.7-4.4,1.5-8.7,2.3-13.1c0.2,0,0.4,0,0.7-0.1c0.8,4.7,1.7,9.3,2.4,14
		C245.4,252.7,243.8,253,242.3,252.9z M244.3,258.3c-0.1,1-0.6,1.8-1.6,1.8c-1.2,0.1-1.7-0.7-1.7-1.9c0-1,0.6-1.7,1.6-1.6
		C243.6,256.6,244.1,257.3,244.3,258.3z M248.4,260.4c0-1,0.7-1.6,1.7-1.5c1,0,1.5,0.7,1.6,1.6c-0.2,0.9-0.8,1.6-1.7,1.6
		C249,262.1,248.3,261.5,248.4,260.4z M226.2,118.8c10.8-1,21.6-1,32.4,0c2,0.2,2.8,0.7,2.4,3c-6.1,33.8-12.1,67.6-18.1,101.5
		c-0.1,0.3-0.3,0.5-0.8,1.3C236,190,230,156,223.8,122C223.4,119.5,224,119,226.2,118.8z M150.4,148.1
		c20.1-14.6,42.4-23.9,66.9-28.1c4.6-0.8,4.6-0.7,5.4,3.9c2.9,16.7,5.9,33.4,8.9,50.1c3.2,18.2,6.4,36.4,9.7,54.6
		c0.1,0.6,0.2,1.3,0.4,1.9c-1,5.6-1.3,11.4-3.4,16.5c-0.9,2.1-1.3,4.5-2.5,6.5c-0.9,1.5-2.5,2.1-4,1.3c-8.7-5.1-17.7-9.6-23.7-18.5
		c-19.2-28-38.8-55.8-58.3-83.6C148.3,150.6,148.2,149.7,150.4,148.1z M226.1,260.7c-1.1,0.3-1.4-0.8-1.9-1.5
		c-2.6-3.7-5.1-7.3-7.7-11c0.1-0.1,0.3-0.3,0.4-0.4c3.2,2.2,6.4,4.5,9.6,6.7c1.5,1,2.2,2.4,1.5,4.2
		C227.8,259.7,227,260.4,226.1,260.7z M229.4,273.2c-0.1,1-0.5,1.7-1.6,1.7c-0.9,0-1.5-0.6-1.6-1.4c-0.1-1,0.5-1.7,1.5-1.8
		C228.7,271.5,229.3,272.2,229.4,273.2z M230.7,290c-4.6,3.2-9.2,6.4-13.7,9.6c-0.2-0.2-0.4-0.4-0.6-0.5c2.1-3,4.2-6,6.3-9
		C225.3,292.3,227.8,287.4,230.7,290z M230,282.3c-1.2,0-1.9-0.6-1.8-1.6c0.1-1,0.7-1.6,1.8-1.6c0.9,0,1.4,0.6,1.4,1.5
		C231.4,281.6,230.9,282.2,230,282.3z M229.7,267.5c-1,0-1.6-0.8-1.6-1.7c0-0.9,0.6-1.6,1.7-1.6c1,0,1.5,0.7,1.6,1.6
		C231.3,266.9,230.7,267.6,229.7,267.5z M121.5,175.7c6.9-8.4,14.5-16,22.9-22.9c1.5-1.2,2.3-1.8,3.7,0.3
		c19.7,28.4,39.5,56.7,59.2,85c-0.1,0.1-0.3,0.3-0.4,0.4c-11.1-7.7-22.1-15.5-33.2-23.2c-17.2-12-34.4-24.1-51.7-36
		C120.1,178.1,120.1,177.4,121.5,175.7z M88.7,249.7c4-24.9,13.5-47.5,28.2-68c1.5-2.1,2.5-2.1,4.5-0.7
		c28.8,20.2,57.7,40.3,86.6,60.5c2.2,1.5,4,3.3,5.5,5.5c2.9,4.3,5.9,8.5,9.1,13c-2,0.1-3.4,0.4-1.5,2.4c0.5,0.5,1.1,1.1,1.6,1.7
		c1.4,2,0.6,4.3-1.8,4.8c-7,1.3-14,3-21.1,3.6c-3.9,0.3-8-1.1-12-1.8c-32-5.7-64-11.4-95.9-17.1C89.5,253.2,88.2,252.9,88.7,249.7z
		 M222.3,276c-0.4,1.4-1.6,0.4-2.5,0.3c-4.7-0.8-9.4-1.6-14.1-2.4c0-0.2,0-0.5-0.1-0.7c3-0.5,6-1,9-1.6c2.5-0.6,4.5,0.7,6.5,1.7
		C222.1,273.7,222.7,275,222.3,276z M87.6,288.7c-0.8-10.4-0.8-20.7,0.1-31c0.2-2.4,0.9-3.2,3.6-2.7c32.9,6,65.8,11.8,98.8,17.7
		c1,0.2,2,0.3,2.9,0.4c0,0.2,0,0.5,0,0.7c-6.9,1.2-13.8,2.5-20.6,3.7c-26.8,4.8-53.5,9.5-80.2,14.4
		C89.1,292.4,87.9,292.1,87.6,288.7z M117,365.4c-15-20.7-24.5-43.6-28.3-68.9c-0.3-2.1,0.2-2.7,2.1-3c27.6-4.9,55.3-9.8,82.9-14.7
		c6.8-1.2,13.7-2.3,20.5-3.7c3.5-0.7,6.9-0.7,10.4,0c5.3,1.1,10.7,2,16.7,3c-0.9,0.7-1.3,1-1.7,1.4c-0.6,0.5-1.5,0.8-1.2,1.7
		c0.3,0.9,1.3,0.7,2,0.7c0.9,0,1.8-0.2,2.6,0c1.6,0.4,2.6,1.2,1.3,3c-4.2,5.9-8.3,11.9-12.5,17.9c-0.6,0.9-1.6,1.5-2.5,2.1
		c-29.2,20.4-58.3,40.7-87.4,61.1C119.6,367.6,118.6,367.7,117,365.4z M120.8,370.4c-1.6-2,0.5-2.2,1.3-2.7c17.1-12,34.3-24,51.5-36
		c10.3-7.2,20.6-14.4,30.9-21.6c0.8-0.6,1.6-1.5,3.3-1.6c-20.5,29.4-40.7,58.4-61,87.5C137,388.4,128.5,379.9,120.8,370.4z
		 M218.6,427.3c-25-4.1-47.7-13.5-68.2-28.4c-2.2-1.6-2-2.5-0.6-4.6c20.5-29.2,40.9-58.5,61.3-87.7c0.9-1.3,1.9-2.4,3.2-3.3
		c5.8-4,11.5-8,17.3-12c0.2,0.5,0.3,0.7,0.3,0.9c0.3,1.5-1,3.6,0.3,4.3c1.6,0.8,2.2-1.7,3.3-2.6c1.4-1.1,1.9-0.6,2.2,0.9
		c1.3,7.2,3.2,14.3,3.5,21.5c0.3,5.1-1.4,10.4-2.3,15.6c-5.5,30.8-11,61.5-16.4,92.3C222.2,426.5,221.8,427.8,218.6,427.3z
		 M258.3,428.3c-10.6,0.9-21.1,1-31.7,0c-2.4-0.2-3.2-0.9-2.7-3.5c4.6-25.3,9.1-50.7,13.7-76.1c1.5-8.5,3-17,4.5-25.6
		c0.2,0,0.4,0,0.6-0.1c0.8,4.3,1.6,8.5,2.4,12.8c5.3,29.6,10.5,59.2,15.8,88.8C261.3,426.8,261.1,428,258.3,428.3z M334.7,398.8
		c-20.8,15.1-43.8,24.7-69.2,28.4c-2.3,0.3-2.8-0.4-3.1-2.3c-6.2-35.4-12.5-70.9-18.9-106.3c-0.3-1.7,0-3.3,0.3-4.9
		c1.1-6.2,2.2-12.4,3.3-18.5c0.1-0.7-0.1-1.7,0.9-1.9c0.8-0.2,1.5,0.4,2,1c0.4,0.4,0.7,0.9,1.1,1.2c0.6,0.6,1.1,1.6,2.1,1.1
		c0.8-0.5,0.4-1.4,0.3-2.1c-0.1-0.8-0.6-1.7-0.1-2.8c6.2,4.3,12.3,8.6,18.4,12.9c0.7,0.5,1.2,1.3,1.7,2c20.5,29.4,41,58.8,61.6,88.1
		C336.3,396.4,336.7,397.3,334.7,398.8z M362.9,371.9c-6.9,8.2-14.4,15.8-22.7,22.6c-1.7,1.4-2.4,1.1-3.6-0.6
		c-19-27.4-38.1-54.7-57.2-82c-0.6-0.8-1.2-1.6-1.8-2.5c1.5-0.3,2.1,0.6,2.9,1.1c27.2,19,54.5,38,81.7,57
		C364.3,368.9,364.7,369.8,362.9,371.9z M396.2,297c-4,25.3-13.6,48.1-28.6,68.8c-1.4,1.9-2.3,1.8-4.1,0.6
		c-29.4-20.6-58.8-41.1-88.2-61.6c-1.8-1.3-2.9-2.9-4.1-4.6c-3.3-4.7-6.6-9.4-9.8-14.1c-0.6-0.9-1.7-1.7-1-2.9
		c0.6-1.3,1.9-1.4,3.1-1.4c0.2,0,0.4,0,0.7,0c0.9-0.1,2.3,0.4,2.7-0.7c0.5-1.2-1-1.4-1.7-2.1c-0.2-0.2-0.5-0.4-1-0.8
		c11.4-2.3,22.1-4.4,33.8-2.1c31.7,6.3,63.7,11.6,95.6,17.2C395.7,293.8,396.7,294.2,396.2,297z M397.1,290.6
		c-0.3,2.6-1.9,1.6-3.1,1.4c-11.4-2-22.8-4-34.1-6c-22.1-3.9-44.2-7.9-66.3-11.8c-0.5-0.1-1-0.3-1.5-0.4c0-0.2,0-0.4-0.1-0.6
		c30.3-5.4,60.6-10.8,90.9-16.2c4-0.7,8-1.3,12-2.2c1.4-0.3,1.9,0,2.1,1.4C398.3,267.7,398.3,279.1,397.1,290.6z"/>
</g>
<g>
	<path class="st2" d="M433.6,408.7c0,0-21.6-16.2-54.1-3.6s-25.2,25.2-48.7,24.3s-49.6-10.8-49.6-10.8h-6.3l0.5,7.7"/>
	<path class="st1" d="M546.7,428.1c-16.8-0.1-31.7,0-48.9,0c-1.9-10.2-4.9-19.7-6.3-29.3c-1-6.7-5.3-9.8-12.2-9.6
		c-8.6,0.2-17.1,0-25.7,0c-16.2,0-18-2.7-22.9,12.3c-0.1,0.4-6.2,22.8-5.6,26.6c-18.9,0-30.9-0.1-47.4,0c-9.2,0.1-10.3,1.8-7.6,10.4
		c61.4,0,122.8,0,184.2,0C557.1,429.9,555.9,428.1,546.7,428.1z"/>
	<path class="st1" d="M435,223.1c0.2,51.3,0.1,102.7,0.1,154c0,3.5,0,5.1,0,8.5c18.8,0,36.5,0,55,0c0-3.3,0-4.7,0-7.9
		c0-64.6,0-129.3,0-193.9c0-17-0.4-17.7-16.6-23.4c0-14.3-0.1-28.7,0.2-43.2c0-2,2.2-5.5,3.6-5.6c11.9-0.8,23.9-1.1,35.9-1.5
		c10.5-0.4,21.1-0.1,31.4-1.7c3.1-0.5,7.5-6.6,7.4-10.1c-0.1-3.5-4.3-8.1-7.9-10c-3.9-2.1-9.1-2.2-13.8-2.3
		c-18.5-0.2-37-0.1-55.5-0.1c-26.8,0-53.5,0-80.3,0.1c-3.8,0-7.7,0.5-11.4,1.3c-6.1,1.3-11.5,3.9-11.5,11.3c0,7.9,6,11,12.2,11.6
		c8.4,0.9,17,0.2,25.6,0.2c13.7,0,27.3,0,41.3,0c0,18.5,0,34.8,0,51.1c-13.4,2.4-15.7,5.1-15.8,18.2c0,7.1,0.3,14.2-0.2,21.2
		C434.8,201.1,434.9,222,435,223.1z"/>
</g>
</svg>
