<?xml version="1.0" encoding="utf-8"?>
<!-- Generator: Adobe Illustrator 21.0.2, SVG Export Plug-In . SVG Version: 6.00 Build 0)  -->
<svg version="1.1" id="Layer_1" xmlns="http://www.w3.org/2000/svg" xmlns:xlink="http://www.w3.org/1999/xlink" x="0px" y="0px"
	 viewBox="0 0 607 527" style="enable-background:new 0 0 607 527;" xml:space="preserve">
<style type="text/css">
	.st0{fill:#FFFFFF;}
	.st1{fill:none;stroke:#FFFFFF;stroke-width:11;stroke-miterlimit:10;}
</style>
<path class="st0" d="M582.3,283.9c-4.2-27.7-17.3-50.5-39.7-67.4C526,204,507.1,197.8,486.3,198c-14.4,0.1-28.1,3.5-40.8,10.3
	c-1.7,0.9-2.6,0.8-3.6-0.9c-8.9-14.2-18-28.4-27-42.5c-0.9-1.4-0.8-2.5-0.2-3.9c2.5-5.2,5.6-10.4,7.3-15.9c1.6-5.5,5.1-8.2,9.9-10.1
	c1-0.4,1.9-0.9,2.9-1.3c5.1-2.1,10.1-4.3,15.2-6.2c1.7-0.7,2.5-1.5,2.2-3.4c-0.4-2.6-0.6-5.2-0.9-7.8c-0.1-1.4-0.7-2.2-2.2-2.1
	c-0.6,0.1-1.2,0-1.8,0c-25.4,0-50.7,0-76.1,0c-0.8,0-1.7,0-2.5,0c-0.5,0-1.1,0.2-1.2,0.6c-0.1,1.5-0.2,3.1-0.1,4.6
	c0.1,1.3,1.4,1.5,2.3,1.9c2.2,1,4.3,2,6.5,2.9c9.3,4.2,18.7,8.4,28,12.5c1.8,0.8,2.7,1.7,2.3,3.7c-0.3,1.6-0.5,3.3-0.4,5
	c0.3,5.7-2.3,9.9-5.8,14c-1.7,2-3.4,2.8-6,2.8c-27.5-0.2-55-0.2-82.5-0.2c-34.8-0.1-69.6-0.3-104.3-0.4c-1.2,0-2.5,0.1-4-0.5
	c4.1-6.6,7.9-13.1,12.1-19.3c2.5-3.7,4-16.3-1.2-21.1c-29.6-27.6,29.5-20.5,44.6-20.7c5.2-0.1,10.5,0,16.2,0
	c-1.1-4.2-2.1-7.6-2.9-11.1c-0.4-1.7-1.2-2.1-2.7-2c-4.5,0.4-9,0.6-13.5,0.9c-15.4,1.1-30.9,2.4-46.3,3.2c-4.9,0.2-9,1.6-13,4.2
	c-1.2,0.8-8.2,6.2-3.1,18.7c0.6,1.4,5.4,10.3,7.5,13.5c3.1,4.8,3,10.1,0.5,14.8c-11.3,21.1-22.9,42-34.3,63
	c-1.6,2.9-1.6,2.9-4.5,1.6c-14.6-6.9-30-9.9-46.1-8.6c-24.7,2-45.3,12.3-61.9,30.4c-19.8,21.6-28.5,47.4-27.2,76.6
	c1,21.5,7.9,41.1,20.9,58.2c16.5,21.6,38.1,34.8,65.2,37.6c27.1,2.8,51.4-4.8,71.4-23.4c31.1-28.8,40.5-64.7,30.7-105.5
	c-5.3-22.2-17.6-40.4-35.6-54.7c-2.4-1.9-2.4-1.9-1-4.5c3.7-6.8,7.5-13.6,11.2-20.3c1.1-2,3.1-2.9,4.9-2.4c1.2,0.3,1.9,1.4,2.8,2.2
	c40.9,37.6,81.9,75.3,122.8,113c1.6,1.5,3.2,2.1,5.4,2.1c19.8,0,39.5,0.1,59.3,0.1c1.4,0,2.9,0.1,4.3,0.1c1.2,0,1.7,0.6,1.9,1.7
	c0.1,0.7,0.2,1.4,0.3,2.1c2.6,23.6,11.9,44.4,28.6,61.3c23.6,23.8,52.2,33.2,85.1,26.8c26.1-5.1,46.2-19.8,60.6-41.9
	C581.2,335.4,586.3,310.6,582.3,283.9z M202.1,287.6c3.9,29.5-4.7,55-26.7,75.2c-32.3,29.6-82.9,26.4-111.7-6.6
	c-14.8-17-21.7-37-21-59.5c1.3-36.2,24.9-66.3,56.9-76.2c18.1-5.6,35.9-4.6,53.4,2.5c0.8,0.3,1.5,0.7,2.3,1c0.3,0.2,0.6,0.4,0.9,0.6
	c0.1,1.3-0.8,2.2-1.4,3.3c-9.9,18.1-19.8,36.1-29.6,54.2c-1,1.8-2,2.7-4.3,3c-7.1,0.7-12.2,7.2-12,14.9c0.1,7.4,5.5,13.6,12.5,14.3
	c7,0.7,13.1-4,14.9-11.1c0.7-2.9,0.5-5.7-0.4-8.4c-0.4-1.2-0.4-2.2,0.2-3.4c10.8-19.6,21.7-39.2,32.5-58.7c0.1-0.1,0.2-0.1,0.5-0.3
	c1.7,0.9,3.2,2.2,4.7,3.5C189.7,249.6,199.4,266.8,202.1,287.6z M441.1,233.2c0.1-0.1,0.2,0,0.8-0.1c11.7,19.5,23.3,38.9,34.9,58.4
	c-1.4,0.8-2.5,0.6-3.5,0.6c-20.9,0.1-41.9,0.1-62.8,0.2c-0.4,0-0.7,0-1.1,0c-1.6,0.2-2-0.4-1.8-2c0.7-5.7,2-11.2,3.8-16.6
	c5.5-16,14.8-29.1,28.2-39.4C440.1,233.9,440.6,233.5,441.1,233.2z M331.8,289.2c-42.7-36.7-85.4-73.3-128.1-109.9
	c0.1-0.2,0.3-0.4,0.4-0.7c61.9-0.3,123.7-0.5,185.7-0.8c0.7,1.6-0.5,2.6-1,3.6c-11.1,21.3-22.3,42.6-33.5,63.8
	c-7,13.4-14,26.8-21,40.1C333.6,286.7,333.1,288.1,331.8,289.2z M391.7,290.8c-0.2,1.3-0.7,1.9-2,1.9c-14,0-28.1,0-42.1,0
	c-0.1,0-0.2-0.1-0.7-0.5c20.6-37.9,41.2-75.7,61.8-113.5c1.3,0.6,1.6,1.7,2.1,2.6c6.6,10.9,13.1,21.8,19.6,32.8
	c1.6,2.7,1.6,2.7-0.7,4.6c-19.7,16.1-31.6,36.8-36.5,61.7C392.5,283.7,392.1,287.2,391.7,290.8z M528.5,372.4
	c-36.5,22.7-83.9,11.9-107.7-24.5c-7.4-11.4-11.8-23.8-13.4-37.3c-0.3-2.4-0.2-2.6,2.4-2.5c21.1,0.1,42.2,0.3,63.2,0.4
	c1.7,0,2.8,0.4,3.9,1.7c4.5,5.5,11.1,7,16.9,4c6-3.1,9-10.4,7.3-17.1c-1-3.9-3.2-6.9-6.6-9c-1.3-0.8-2.3-1.6-3.1-2.8
	c-12.4-19.5-24.8-39-37.2-58.5c-0.1-0.2-0.2-0.4-0.5-1.1c5.4-2.8,10.9-4.5,16.6-5.8c42.8-9.2,82.3,17.6,93.8,57.7
	C574.4,313.9,559.8,353,528.5,372.4z"/>
<line class="st1" x1="34" y1="429.5" x2="584" y2="429.5"/>
</svg>
